<svg width="31" height="31" viewBox="0 0 31 31" fill="none" xmlns="http://www.w3.org/2000/svg">
<g clip-path="url(#clip0_1_355)">
<path d="M7.0835 14.5547L9.5835 12.0547L16.4585 18.9297L20.8335 14.5547L24.5835 18.3047V6.92969H7.0835V14.5547ZM5.8335 4.42969H25.8335C26.165 4.42969 26.483 4.56138 26.7174 4.7958C26.9518 5.03022 27.0835 5.34817 27.0835 5.67969V25.6797C27.0835 26.0112 26.9518 26.3292 26.7174 26.5636C26.483 26.798 26.165 26.9297 25.8335 26.9297H5.8335C5.50198 26.9297 5.18403 26.798 4.94961 26.5636C4.71519 26.3292 4.5835 26.0112 4.5835 25.6797V5.67969C4.5835 5.34817 4.71519 5.03022 4.94961 4.7958C5.18403 4.56138 5.50198 4.42969 5.8335 4.42969ZM20.2085 13.1797C19.7112 13.1797 19.2343 12.9821 18.8827 12.6305C18.531 12.2789 18.3335 11.802 18.3335 11.3047C18.3335 10.8074 18.531 10.3305 18.8827 9.97886C19.2343 9.62723 19.7112 9.42969 20.2085 9.42969C20.7058 9.42969 21.1827 9.62723 21.5343 9.97886C21.886 10.3305 22.0835 10.8074 22.0835 11.3047C22.0835 11.802 21.886 12.2789 21.5343 12.6305C21.1827 12.9821 20.7058 13.1797 20.2085 13.1797Z" fill="white"/>
</g>
<defs>
<clipPath id="clip0_1_355">
<rect width="30" height="30" fill="white" transform="translate(0.833496 0.679688)"/>
</clipPath>
</defs>
</svg>
